# xmcd
# 
# Track frame offsets:
#     150
#     20241
#     43200
#     64761
# 
# Disc length: 1148
# 
# Revision: 0
# Processed by: cddbd v1.5.2PL0 Copyright (c) Steve Scherf et al.
# Submitted via: fre:ac v1.0.17
# 
DISCID=36047a04
DTITLE=Sandweaver - Doubting her
DYEAR=2006
DGENRE=Alternative
TTITLE0=Doubting her
TTITLE1=Jupiter girl
TTITLE2=Red band (live)
TTITLE3=Doubting her - sea monsters remix
EXTD=
EXTT0=
EXTT1=
EXTT2=
EXTT3=
PLAYORDER=
